#!OML:ASF E:\Style6\Style6.ASF
:FULLY-SPECIFIED
:DEGREES
2197
root 0.514313 18.2894 1.03765 7.99883 -3.7005 -0.912079
lowerback -1.0399 -0.00641993 2.20225
upperback -14.4211 0.525742 3.39083
thorax -15.3411 0.263139 2.50719
lowerneck -9.68459 1.21985 1.92857
upperneck 3.75923 1.76907 -6.00621
head 3.02433 0.676871 -2.22551
rclavicle 1.11319e-014 -4.53229e-014
rhumerus -52.4768 20.378 -100.28
rradius 85.0023
rwrist 1.4106
rhand -41.899 29.7775
rfingers 7.12502
rthumb -14.7979 0.325795
lclavicle 1.11319e-014 -4.53229e-014
lhumerus -59.2963 -28.3847 100.574
lradius 117.794
lwrist 32.4515
lhand -30.2213 26.7079
lfingers 7.12502
lthumb -3.5312 56.6584
rfemur -3.14389 10.7282 18.2645
rtibia 3.59636
rfoot -9.68313 -19.3461
rtoes 14.8914
lfemur -5.45162 -15.8183 -19.3166
ltibia 11.0571
lfoot -6.54031 26.0974
ltoes -5.27076
2198
root 0.517833 18.2888 1.04396 8.03202 -3.61944 -0.885685
lowerback -1.07376 -0.0147571 2.147
upperback -14.4263 0.508778 3.38428
thorax -15.3251 0.26171 2.53221
lowerneck -9.53255 1.30701 2.33415
upperneck 3.27056 1.83949 -6.44642
head 2.84847 0.710892 -2.43958
rclavicle 1.63003e-014 -2.54444e-014
rhumerus -53.1962 20.0498 -100.32
rradius 84.7966
rwrist 1.54966
rhand -41.9023 29.7617
rfingers 7.12502
rthumb -14.801 0.310248
lclavicle 1.63003e-014 -2.54444e-014
lhumerus -58.4842 -28.2991 100.152
lradius 118.133
lwrist 32.2888
lhand -30.093 26.6148
lfingers 7.12502
lthumb -3.4073 56.5673
rfemur -3.06329 10.6546 18.2364
rtibia 3.44332
rfoot -10.0904 -19.3663
rtoes 16.2001
lfemur -5.45407 -15.919 -19.3442
ltibia 11.0137
lfoot -6.56086 26.1674
ltoes -5.21725
2199
root 0.520656 18.2894 1.05142 8.10064 -3.39751 -0.856832
lowerback -1.21645 -0.0661327 2.11712
upperback -14.3991 0.428051 3.36833
thorax -15.1949 0.225029 2.53684
lowerneck -9.42212 1.34476 2.63439
upperneck 2.70319 1.84711 -6.83214
head 2.64944 0.714868 -2.61917
rclavicle -3.18055e-015 -9.54166e-015
rhumerus -53.7691 19.8345 -100.378
rradius 84.5521
rwrist 1.62163
rhand -42.0266 30.0855
rfingers 7.12502
rthumb -14.9208 0.642943
lclavicle -3.18055e-015 -9.54166e-015
lhumerus -57.5306 -28.2683 99.629
lradius 118.446
lwrist 32.2963
lhand -30.1179 26.5582
lfingers 7.12502
lthumb -3.43131 56.5104
rfemur -2.97512 10.4411 18.2302
rtibia 3.27788
rfoot -10.3544 -19.408
rtoes 16.9202
lfemur -5.53141 -15.9386 -19.3288
ltibia 10.9943
lfoot -6.48117 26.0164
ltoes -5.26431
2200
root 0.521879 18.2898 1.05647 8.14479 -3.21585 -0.85664
lowerback -1.2886 -0.111565 2.07798
upperback -14.3814 0.360487 3.37088
thorax -15.1236 0.197765 2.56719
lowerneck -9.4869 1.33224 2.61796
upperneck 2.35827 1.81677 -6.9088
head 2.54476 0.700541 -2.64
rclavicle -1.27222e-014 3.65764e-014
rhumerus -54.4425 19.6752 -100.488
rradius 84.4501
rwrist 1.53398
rhand -42.2878 30.4851
rfingers 7.12502
rthumb -15.1724 1.0613
lclavicle -1.27222e-014 3.65764e-014
lhumerus -56.6059 -28.1985 99.1465
lradius 118.712
lwrist 32.2864
lhand -31.123 26.8253
lfingers 7.12502
lthumb -4.40189 56.7595
rfemur -2.87446 10.2726 18.2549
rtibia 3.10849
rfoot -10.4584 -19.5218
rtoes 17.2916
lfemur -5.59084 -15.8914 -19.2891
ltibia 10.9929
lfoot -6.49355 25.7814
ltoes -4.73471
2201
root 0.523481 18.29 1.06065 8.1255 -3.11662 -0.821029
lowerback -1.25923 -0.148383 1.98222
upperback -14.3676 0.306438 3.3856
thorax -15.1234 0.185567 2.64303
lowerneck -9.64494 1.32306 2.46105
upperneck 2.1805 1.80752 -6.82838
head 2.50916 0.696379 -2.5824
rclavicle 9.14409e-015 3.97569e-015
rhumerus -55.1729 19.6682 -100.651
rradius 84.3773
rwrist 1.19486
rhand -42.5109 30.76
rfingers 7.12502
rthumb -15.3873 1.35261
lclavicle 9.14409e-015 3.97569e-015
lhumerus -55.8345 -28.0338 98.7173
lradius 119
lwrist 32.1337
lhand -31.7385 27.49
lfingers 7.12502
lthumb -4.99624 57.4111
rfemur -2.80083 10.1826 18.2428
rtibia 3.07579
rfoot -10.6232 -19.6235
rtoes 17.9663
lfemur -5.55915 -15.8873 -19.3241
ltibia 10.97
lfoot -6.46888 25.6446
ltoes -4.49561
2202
root 0.525532 18.2912 1.06464 8.08105 -3.00594 -0.854644
lowerback -1.20564 -0.169878 1.95725
upperback -14.3433 0.280793 3.41389
thorax -15.1269 0.179328 2.6914
lowerneck -9.72136 1.3144 2.30171
upperneck 1.88349 1.79308 -6.73189
head 2.41762 0.693485 -2.51754
rclavicle 2.38542e-015 1.66979e-014
rhumerus -55.7991 19.6068 -100.762
rradius 84.2212
rwrist 0.942214
rhand -42.6882 30.685
rfingers 7.12502
rthumb -15.558 1.29078
lclavicle 2.38542e-015 1.66979e-014
lhumerus -55.053 -27.8862 98.3089
lradius 119.292
lwrist 31.9765
lhand -31.5216 28.3191
lfingers 7.12502
lthumb -4.78677 58.245
rfemur -2.72637 10.0931 18.3201
rtibia 3.09944
rfoot -10.7173 -19.7615
rtoes 17.9813
lfemur -5.50475 -15.9005 -19.2878
ltibia 10.9464
lfoot -6.52884 25.5626
ltoes -4.25865
2203
root 0.528564 18.2917 1.06868 8.08348 -2.8536 -0.857313
lowerback -1.21796 -0.194172 1.94245
upperback -14.3228 0.24497 3.40291
thorax -15.0912 0.163122 2.69016
lowerneck -9.68553 1.3214 2.32247
upperneck 1.37526 1.77647 -6.82241
head 2.24208 0.69057 -2.54714
rclavicle 9.14409e-015 -1.19271e-014
rhumerus -56.379 19.2452 -100.757
rradius 84.1939
rwrist 0.860482
rhand -42.5998 30.5027
rfingers 7.12502
rthumb -15.4729 1.10194
lclavicle 9.14409e-015 -1.19271e-014
lhumerus -54.24 -27.7958 97.8696
lradius 119.563
lwrist 32.0127
lhand -31.4367 28.9097
lfingers 7.12502
lthumb -4.70479 58.8374
rfemur -2.77128 9.95759 18.3729
rtibia 3.26538
rfoot -10.6914 -19.9801
rtoes 16.7948
lfemur -5.49015 -15.856 -19.2705
ltibia 10.8744
lfoot -6.31213 25.4251
ltoes -4.97058
2204
root 0.531609 18.2911 1.07402 8.07223 -2.6967 -0.786563
lowerback -1.2223 -0.228681 1.86759
upperback -14.3038 0.186552 3.35088
thorax -15.0606 0.139994 2.67912
lowerneck -9.68199 1.33194 2.36112
upperneck 0.909989 1.76229 -6.87081
head 2.08723 0.689212 -2.56649
rclavicle -2.38542e-015 2.3059e-014
rhumerus -57.0172 18.8205 -100.773
rradius 84.2623
rwrist 0.90937
rhand -42.5584 30.3722
rfingers 7.12502
rthumb -15.433 0.968344
lclavicle -2.38542e-015 2.3059e-014
lhumerus -53.4223 -27.7439 97.4086
lradius 119.755
lwrist 32.1684
lhand -31.3975 28.9199
lfingers 7.12502
lthumb -4.66694 58.8485
rfemur -2.75344 9.80601 18.3401
rtibia 3.3799
rfoot -11.1424 -19.9745
rtoes 17.6642
lfemur -5.46975 -15.7827 -19.3408
ltibia 10.8277
lfoot -6.00713 25.2607
ltoes -6.06881
2205
root 0.529853 18.2899 1.07598 7.80503 -3.25838 -0.767392
lowerback -0.865534 -0.0576917 1.69656
upperback -14.2138 0.416719 3.34591
thorax -15.1857 0.271731 2.7442
lowerneck -9.75261 1.36 2.28834
upperneck 0.61713 1.78629 -6.7437
head 2.00005 0.707264 -2.50612
rclavicle 5.56597e-015 -3.49861e-014
rhumerus -57.714 18.6444 -100.926
rradius 84.305
rwrist 0.86009
rhand -42.6313 30.4015
rfingers 7.12502
rthumb -15.5033 1.00304
lclavicle 5.56597e-015 -3.49861e-014
lhumerus -52.6522 -27.6215 96.9164
lradius 119.91
lwrist 32.2232
lhand -31.3988 28.5003
lfingers 7.12502
lthumb -4.6682 58.4289
rfemur -2.60302 10.3783 18.2713
rtibia 3.51106
rfoot -11.2523 -20.0693
rtoes 17.8353
lfemur -5.04265 -15.3451 -19.5538
ltibia 10.7925
lfoot -6.15168 25.3701
ltoes -5.90698
